<?xml version="1.0" encoding="utf-8"?>
<!-- Generator: Adobe Illustrator 23.0.2, SVG Export Plug-In . SVG Version: 6.00 Build 0)  -->
<svg version="1.1" id="Calque_1" xmlns="http://www.w3.org/2000/svg" xmlns:xlink="http://www.w3.org/1999/xlink" x="0px" y="0px"
	 viewBox="0 0 412 412" style="enable-background:new 0 0 412 412;" xml:space="preserve">
<style type="text/css">
	.st0{fill:#FED200;}
	.st1{fill:url(#SVGID_1_);}
	.st2{fill:#E4010B;}
</style>
<g transform="translate(0.000000,412.000000) scale(0.100000,-0.100000)">
	<path class="st0" d="M1951,4101c-29-11-58-24-65-30c-28-23-269-148-676-350c-179-89-338-169-355-178c-47-26-54-29-165-83
		c-58-28-118-63-134-78c-35-33-88-115-105-162c-40-110-40-107-40-1445c0-1318-1-1299,33-1436c3-9,16-40,31-70C550,123,715,36,965,14
		c121-11,546-12,578-1c54,18,60,42,60,220c0,170-5,197-45,218c-13,7-98,12-227,14c-159,3-216,7-251,19c-55,21-86,49-101,93
		c-8,25-12,365-13,1201c-1,642,0,1173,2,1180c3,7,73,46,156,86c83,41,326,160,539,265s389,191,391,191c3,0,938-459,1045-513l45-22
		l-1-108l-1-107l42-1c22-1,148-3,280-4l238-3l-5,181c-6,192-18,260-62,346c-57,111-50,107-653,409c-306,154-574,289-594,300
		c-195,111-247,133-315,138C2021,4119,1993,4116,1951,4101z"/>
	<linearGradient id="SVGID_1_" gradientUnits="userSpaceOnUse" x1="2106.8616" y1="980" x2="2106.8616" y2="1163">
		<stop  offset="0" style="stop-color:#FDC400"/>
		<stop  offset="0.1393" style="stop-color:#FCBB00"/>
		<stop  offset="0.37" style="stop-color:#F7A102"/>
		<stop  offset="0.6635" style="stop-color:#F17804"/>
		<stop  offset="1" style="stop-color:#E84107"/>
	</linearGradient>
	<path class="st1" d="M1714,2678c-88-149-212-390-266-518c-77-181-148-417-163-539c-4-30-9-63-11-75c-7-33-6-236,1-291
		c10-74,51-195,80-237l26-38h128h129l-14,47c-19,62-28,132-27,218c0,68,11,194,19,206c2,3,6,20,9,38c15,86,111,320,154,377l16,21
		l16-21c50-69,136-271,160-375c6-25,13-55,15-66c12-46,4-284-11-354c-8-40-18-77-21-82s62-9,150-9h154l-14,53c-24,89-34,273-20,380
		c13,109,91,313,169,440l23,38l42-74c24-41,58-110,76-154c30-71,42-107,75-238c17-68-6-355-34-427c-7-17,3-18,128-18h134l31,58
		c33,62,58,138,69,211c10,61,10,230,0,313c-26,233-136,551-300,868c-63,123-197,353-216,373c-10,10-146-218-242-406l-72-142l-77,150
		c-42,82-96,180-118,218c-23,37-42,69-42,72c0,6-70,115-74,115C1795,2810,1758,2750,1714,2678z"/>
	<path class="st2" d="M3234,2602c-36-6-63-25-74-53c-9-21-12-272-12-978c-1-991-1-994-43-1041c-46-50-107-61-369-61
		c-171-1-197,2-248,21c-85,31-110,74-110,184c0,33-4,76-10,94c-17,56-38,61-281,59c-280-3-262,11-262-195c0-208,18-302,76-394
		c88-138,234-207,479-226c147-11,728-6,820,7c251,36,381,112,455,265c62,129,62,124,62,1246v1014l-28,28c-15,15-33,28-41,29
		C3604,2603,3250,2604,3234,2602z"/>
</g>
</svg>
